<?xml version="1.0" encoding="UTF-8"?>
<!DOCTYPE svg PUBLIC "-//W3C//DTD SVG 1.1//EN" "http://www.w3.org/Graphics/SVG/1.1/DTD/svg11.dtd">
<svg xmlns="http://www.w3.org/2000/svg" version="1.1" width="617px" height="245px" style="shape-rendering:geometricPrecision; text-rendering:geometricPrecision; image-rendering:optimizeQuality; fill-rule:evenodd; clip-rule:evenodd" xmlns:xlink="http://www.w3.org/1999/xlink">
<g><path style="opacity:1" fill="#f1a032" d="M 294.5,98.5 C 296.213,97.3646 296.88,95.698 296.5,93.5C 298.699,77.3044 301.866,61.3044 306,45.5C 313.339,33.9945 317.839,34.8278 319.5,48C 315.992,71.057 313.658,94.2236 312.5,117.5C 312.667,122.833 312.833,128.167 313,133.5C 313.422,135.426 314.589,136.426 316.5,136.5C 318.698,136.88 320.365,136.213 321.5,134.5C 329.375,129.598 337.875,126.598 347,125.5C 351.406,125.236 355.573,126.069 359.5,128C 362.167,131.333 362.167,134.667 359.5,138C 354.554,139.806 349.888,142.139 345.5,145C 340.291,149.878 334.791,154.378 329,158.5C 325.147,166.381 321.481,174.381 318,182.5C 314.587,186.956 310.087,189.456 304.5,190C 293.526,191.415 282.526,192.081 271.5,192C 269.148,191.76 267.148,190.927 265.5,189.5C 265.027,188.094 264.027,187.427 262.5,187.5C 260.937,186.055 259.604,184.389 258.5,182.5C 258.715,180.821 258.048,179.821 256.5,179.5C 248.917,165.163 245.417,149.829 246,133.5C 240.893,115.513 235.393,97.6802 229.5,80C 229.514,78.6153 229.848,77.4486 230.5,76.5C 232.379,75.6586 234.379,75.3253 236.5,75.5C 240.099,77.2629 242.932,79.9295 245,83.5C 248.488,91.81 252.488,99.81 257,107.5C 255.559,87.5375 254.893,67.5375 255,47.5C 256.043,42.7774 258.876,40.9441 263.5,42C 265.604,44.0424 266.771,46.5424 267,49.5C 268.588,65.8692 270.421,82.2025 272.5,98.5C 273.209,99.404 274.209,99.7373 275.5,99.5C 275.5,97.8333 275.5,96.1667 275.5,94.5C 274.899,74.1671 274.732,53.8338 275,33.5C 276.483,29.3345 279.316,27.8345 283.5,29C 285.936,31.7066 287.436,34.8733 288,38.5C 289.667,58.8435 291.334,79.1768 293,99.5C 293.383,98.944 293.883,98.6107 294.5,98.5 Z"/></g>
<g><path style="opacity:1" fill="#aa5d49" d="M 277.5,47.5 C 285.386,47.5318 285.386,48.1985 277.5,49.5C 276.537,49.0302 276.537,48.3635 277.5,47.5 Z"/></g>
<g><path style="opacity:1" fill="#af634a" d="M 306.5,57.5 C 309.508,56.0793 312.508,56.2459 315.5,58C 312.587,57.7097 309.587,57.5431 306.5,57.5 Z"/></g>
<g><path style="opacity:1" fill="#c06e3b" d="M 260.5,58.5 C 261.675,58.281 262.675,58.6143 263.5,59.5C 261.926,60.6309 260.259,60.7975 258.5,60C 259.416,59.7216 260.082,59.2216 260.5,58.5 Z"/></g>
<g><path style="opacity:0.773" fill="#f8c281" d="M 236.5,75.5 C 234.379,75.3253 232.379,75.6586 230.5,76.5C 230.97,75.3065 231.97,74.6399 233.5,74.5C 234.726,74.5195 235.726,74.8529 236.5,75.5 Z"/></g>
<g><path style="opacity:1" fill="#ab614d" d="M 285.5,76.5 C 283.369,75.6862 281.036,75.1862 278.5,75C 281.5,74.3333 284.5,74.3333 287.5,75C 286.956,75.7172 286.289,76.2172 285.5,76.5 Z"/></g>
<g><path style="opacity:1" fill="#ae5e40" d="M 285.5,76.5 C 284.341,78.3769 282.674,78.8769 280.5,78C 282.154,77.3923 283.821,76.8923 285.5,76.5 Z"/></g>
<g><path style="opacity:1" fill="#c26d33" d="M 303.5,78.5 C 305.103,78.3118 306.437,78.8118 307.5,80C 305.537,80.8442 304.204,80.3442 303.5,78.5 Z"/></g>
<g><path style="opacity:1" fill="#b76539" d="M 237.5,81.5 C 238.239,81.369 238.906,81.5357 239.5,82C 238.333,83.1667 237.167,84.3333 236,85.5C 235.7,83.9343 236.2,82.601 237.5,81.5 Z"/></g>
<g><path style="opacity:1" fill="#ad5f44" d="M 260.5,79.5 C 268.792,78.9951 269.458,80.6618 262.5,84.5C 262.167,84.3333 261.833,84.1667 261.5,84C 262.833,83 264.167,82 265.5,81C 263.182,80.6577 261.015,81.1577 259,82.5C 258.761,81.212 259.261,80.212 260.5,79.5 Z"/></g>
<g><path style="opacity:1" fill="#ac5d45" d="M 309.5,82.5 C 310.743,81.2625 311.743,81.5959 312.5,83.5C 310.167,84.8333 307.833,84.8333 305.5,83.5C 307.533,83.6929 308.866,83.3596 309.5,82.5 Z"/></g>
<g><path style="opacity:0.796" fill="#fefffe" d="M 36.5,93.5 C 49.6449,90.4856 55.1449,95.4856 53,108.5C 51.3413,115.153 47.3413,119.487 41,121.5C 32.007,118.9 30.1737,113.733 35.5,106C 42.3475,102.89 45.3475,105.057 44.5,112.5C 43.1779,112.33 42.0113,112.663 41,113.5C 41.266,110.099 39.766,108.433 36.5,108.5C 36.4598,111.425 37.2932,114.091 39,116.5C 40.7261,117.576 42.5594,117.743 44.5,117C 48.4165,112.667 49.2499,107.833 47,102.5C 46.2496,101.874 45.4162,101.374 44.5,101C 36.4879,100.501 28.4879,100.667 20.5,101.5C 20.5374,115.509 20.8707,129.509 21.5,143.5C 30.395,143.587 39.0616,142.254 47.5,139.5C 47.5,141.833 47.5,144.167 47.5,146.5C 38.8483,147.146 30.1816,147.479 21.5,147.5C 21.5,157.833 21.5,168.167 21.5,178.5C 26.6091,178.57 31.6091,177.903 36.5,176.5C 36.5,178.167 36.5,179.833 36.5,181.5C 28.2374,182.053 20.0708,183.053 12,184.5C 11.5065,182.866 11.3398,181.199 11.5,179.5C 13.5,179.5 15.5,179.5 17.5,179.5C 16.7366,153.63 14.0699,127.963 9.5,102.5C 7.16667,102.5 4.83333,102.5 2.5,102.5C 2.5,101.167 2.5,99.8333 2.5,98.5C 14.3829,99.624 25.7162,97.9573 36.5,93.5 Z"/></g>
<g><path style="opacity:0.791" fill="#fefffe" d="M 427.5,93.5 C 437.16,94.8324 446.827,96.1657 456.5,97.5C 455.902,98.7946 455.402,100.128 455,101.5C 451.606,100.544 448.106,100.211 444.5,100.5C 441.699,124.085 440.199,147.751 440,171.5C 440.151,177.329 442.984,179.829 448.5,179C 451.192,177.12 452.359,174.62 452,171.5C 448.706,174.311 445.706,173.978 443,170.5C 441.949,161.889 445.782,158.389 454.5,160C 459.666,165.571 459.832,171.405 455,177.5C 449.111,184.735 443.111,184.735 437,177.5C 434.938,169.662 433.771,161.662 433.5,153.5C 434.596,139.515 434.763,125.515 434,111.5C 427.547,125.744 422.213,140.41 418,155.5C 416.667,156.167 415.333,156.833 414,157.5C 406.781,141.729 400.115,125.729 394,109.5C 393.089,115.632 392.589,121.799 392.5,128C 393.239,143.5 393.906,159 394.5,174.5C 398.167,174.5 401.833,174.5 405.5,174.5C 405.657,175.873 405.49,177.207 405,178.5C 396.559,177.847 388.059,177.18 379.5,176.5C 380.452,174.488 382.119,173.488 384.5,173.5C 386.858,173.753 389.192,174.086 391.5,174.5C 388.369,149.613 387.036,124.613 387.5,99.5C 383.154,99.3343 378.821,99.501 374.5,100C 366.966,104.236 365.966,109.57 371.5,116C 373.769,116.758 375.936,116.591 378,115.5C 376.883,112.953 375.216,112.953 373,115.5C 369.579,112.036 370.413,110.036 375.5,109.5C 381.573,110.98 383.407,114.646 381,120.5C 377.528,124.71 373.695,125.21 369.5,122C 367.959,120.421 366.792,118.587 366,116.5C 364.646,110.332 365.646,104.666 369,99.5C 371.042,97.396 373.542,96.2293 376.5,96C 384.835,95.4582 393.169,94.9582 401.5,94.5C 401.5,95.5 401.5,96.5 401.5,97.5C 399.473,97.3379 397.473,97.5045 395.5,98C 400.94,113.379 408.106,127.879 417,141.5C 422.829,127.35 428.662,113.184 434.5,99C 431.879,98.0615 429.212,97.2281 426.5,96.5C 427.127,95.5832 427.461,94.5832 427.5,93.5 Z M 448.5,162.5 C 452.225,162.78 453.392,164.78 452,168.5C 450.284,167.448 449.284,168.114 449,170.5C 445.868,167.987 445.701,165.32 448.5,162.5 Z"/></g>
<g><path style="opacity:0.678" fill="#fefffe" d="M 469.5,93.5 C 475.948,91.8215 480.281,93.9882 482.5,100C 481.046,101.659 479.713,101.326 478.5,99C 470.771,97.0772 467.271,99.9105 468,107.5C 468.667,108.167 469.333,108.833 470,109.5C 468.813,102.351 471.647,99.8508 478.5,102C 482.579,108.386 480.745,112.552 473,114.5C 465.407,112.322 462.74,107.322 465,99.5C 466.277,97.2528 467.777,95.2528 469.5,93.5 Z M 475.5,105.5 C 476.94,107.42 476.607,109.087 474.5,110.5C 474.167,110.333 473.833,110.167 473.5,110C 475.037,108.89 475.703,107.39 475.5,105.5 Z"/></g>
<g><path style="opacity:0.878" fill="#fbcc96" d="M 296.5,93.5 C 296.88,95.698 296.213,97.3646 294.5,98.5C 294.796,96.597 295.463,94.9303 296.5,93.5 Z"/></g>
<g><path style="opacity:0.902" fill="#fdd1a0" d="M 275.5,94.5 C 275.5,96.1667 275.5,97.8333 275.5,99.5C 274.209,99.7373 273.209,99.404 272.5,98.5C 273.978,97.5525 274.978,96.2191 275.5,94.5 Z"/></g>
<g><path style="opacity:1" fill="#b7653b" d="M 245.5,96.5 C 247.811,97.961 247.811,99.7944 245.5,102C 244.833,102.667 244.167,102.667 243.5,102C 245.007,101.163 245.507,99.9961 245,98.5C 243.887,100.329 242.387,101.163 240.5,101C 242.063,99.264 243.73,97.764 245.5,96.5 Z"/></g>
<g><path style="opacity:1" fill="#ba6636" d="M 286.5,103.5 C 287.675,103.281 288.675,103.614 289.5,104.5C 286.894,105.652 284.227,105.818 281.5,105C 283.382,104.802 285.048,104.302 286.5,103.5 Z"/></g>
<g><path style="opacity:1" fill="#af6143" d="M 301.5,104.5 C 303.435,103.291 305.435,103.458 307.5,105C 305.512,105.18 303.512,105.014 301.5,104.5 Z"/></g>
<g><path style="opacity:1" fill="#b26342" d="M 268.5,105.5 C 269.873,105.343 271.207,105.51 272.5,106C 270.253,107.309 267.92,107.975 265.5,108C 266.571,107.148 267.571,106.315 268.5,105.5 Z"/></g>
<g><path style="opacity:0.758" fill="#fefffe" d="M 533.5,107.5 C 537.182,107.335 540.848,107.501 544.5,108C 547.087,109.525 547.92,111.692 547,114.5C 543.542,117.797 539.876,118.464 536,116.5C 535.51,115.207 535.343,113.873 535.5,112.5C 537.816,113.36 540.149,113.86 542.5,114C 540.316,111.632 537.649,110.965 534.5,112C 531.629,114.84 531.963,117.174 535.5,119C 542.167,119.667 548.833,119.667 555.5,119C 559.405,117.641 563.405,116.808 567.5,116.5C 560.384,136.126 549.718,153.626 535.5,169C 541.5,169.333 547.5,169.667 553.5,170C 556.512,170.78 559.345,171.947 562,173.5C 563.108,169.914 563.608,166.247 563.5,162.5C 564.978,162.238 566.311,162.571 567.5,163.5C 565.918,170.395 565.251,177.395 565.5,184.5C 564.167,184.5 562.833,184.5 561.5,184.5C 561.318,182.409 561.652,180.409 562.5,178.5C 560.075,176.855 557.408,175.689 554.5,175C 544.971,173.666 535.804,174.832 527,178.5C 526.167,176.833 525.333,175.167 524.5,173.5C 539.564,159.745 550.231,143.078 556.5,123.5C 556,123.167 555.5,122.833 555,122.5C 546.874,125.775 539.04,125.608 531.5,122C 527.128,116.408 527.794,111.575 533.5,107.5 Z"/></g>
<g><path style="opacity:0.758" fill="#fefffe" d="M 204.5,109.5 C 208.182,109.335 211.848,109.501 215.5,110C 218.087,111.525 218.92,113.692 218,116.5C 214.542,119.797 210.876,120.464 207,118.5C 206.51,117.207 206.343,115.873 206.5,114.5C 208.816,115.36 211.149,115.86 213.5,116C 211.316,113.632 208.649,112.965 205.5,114C 202.629,116.84 202.963,119.174 206.5,121C 213.167,121.667 219.833,121.667 226.5,121C 230.405,119.641 234.405,118.808 238.5,118.5C 231.384,138.126 220.718,155.626 206.5,171C 212.5,171.333 218.5,171.667 224.5,172C 227.512,172.78 230.345,173.947 233,175.5C 234.108,171.914 234.608,168.247 234.5,164.5C 235.978,164.238 237.311,164.571 238.5,165.5C 236.918,172.395 236.251,179.395 236.5,186.5C 235.167,186.5 233.833,186.5 232.5,186.5C 232.318,184.409 232.652,182.409 233.5,180.5C 231.075,178.855 228.408,177.689 225.5,177C 215.971,175.666 206.804,176.832 198,180.5C 197.167,178.833 196.333,177.167 195.5,175.5C 210.564,161.745 221.231,145.078 227.5,125.5C 227,125.167 226.5,124.833 226,124.5C 217.874,127.775 210.04,127.608 202.5,124C 198.128,118.408 198.794,113.575 204.5,109.5 Z"/></g>
<g><path style="opacity:0.788" fill="#fefffe" d="M 591.5,114.5 C 600.98,112.485 606.813,116.152 609,125.5C 609.667,131.167 609.667,136.833 609,142.5C 605.115,150.271 601.781,158.271 599,166.5C 597.84,171.434 597.34,176.434 597.5,181.5C 596.5,181.5 595.5,181.5 594.5,181.5C 594.664,178.813 594.497,176.146 594,173.5C 588.98,178.544 583.646,179.211 578,175.5C 574.085,169.239 574.918,163.739 580.5,159C 585.987,157.122 591.653,155.956 597.5,155.5C 602.727,143.577 602.727,131.744 597.5,120C 589.137,118.444 584.303,121.944 583,130.5C 582.333,133.833 582.333,137.167 583,140.5C 587.629,143.465 590.796,142.132 592.5,136.5C 591.485,133.832 589.818,133.166 587.5,134.5C 591.314,136.27 591.148,137.936 587,139.5C 583.041,137.113 582.541,134.113 585.5,130.5C 595.394,127.559 598.561,130.893 595,140.5C 589.404,147.61 583.738,147.944 578,141.5C 577.186,129.794 581.686,120.794 591.5,114.5 Z M 589.5,160.5 C 591.924,160.192 594.257,160.526 596.5,161.5C 596.447,169.058 592.78,172.558 585.5,172C 583.964,170.401 583.464,168.567 584,166.5C 585.36,163.977 587.193,161.977 589.5,160.5 Z"/></g>
<g><path style="opacity:1" fill="#b26343" d="M 253.5,114.5 C 255.379,114.393 255.712,114.893 254.5,116C 245.69,121.926 245.356,121.426 253.5,114.5 Z"/></g>
<g><path style="opacity:1" fill="#af6144" d="M 276.5,118.5 C 285.117,115.28 294.117,113.78 303.5,114C 294.523,115.718 285.523,117.218 276.5,118.5 Z"/></g>
<g><path style="opacity:0.767" fill="#fefffe" d="M 498.5,116.5 C 500.268,120.044 501.102,124.044 501,128.5C 503.761,119.705 509.595,115.871 518.5,117C 522.896,120.119 525.229,124.452 525.5,130C 525.339,138.487 521.172,143.653 513,145.5C 504.688,141.941 503.522,136.774 509.5,130C 515.979,127.832 518.812,129.999 518,136.5C 516.667,137.167 515.333,137.833 514,138.5C 514.409,136.775 514.242,135.108 513.5,133.5C 511.306,135.315 510.972,137.482 512.5,140C 516.346,141.157 519.179,139.991 521,136.5C 522.698,127.237 518.865,123.737 509.5,126C 504.386,130.562 501.386,136.228 500.5,143C 501.395,153.155 502.062,163.321 502.5,173.5C 506.974,172.092 511.307,170.425 515.5,168.5C 515.677,170.981 514.677,172.814 512.5,174C 505.373,177.709 497.873,180.209 490,181.5C 489.506,179.866 489.34,178.199 489.5,176.5C 492.448,176.777 495.281,176.444 498,175.5C 497.618,159.249 495.285,143.249 491,127.5C 490.586,127.043 490.086,126.709 489.5,126.5C 487.358,127.601 485.192,128.601 483,129.5C 482.51,128.207 482.343,126.873 482.5,125.5C 488.77,124.035 494.104,121.035 498.5,116.5 Z"/></g>
<g><path style="opacity:0.767" fill="#fefffe" d="M 114.5,118.5 C 116.268,122.044 117.102,126.044 117,130.5C 119.761,121.705 125.595,117.871 134.5,119C 138.896,122.119 141.229,126.452 141.5,132C 141.339,140.487 137.172,145.653 129,147.5C 120.688,143.941 119.522,138.774 125.5,132C 131.979,129.832 134.812,131.999 134,138.5C 132.667,139.167 131.333,139.833 130,140.5C 130.409,138.775 130.242,137.108 129.5,135.5C 127.306,137.315 126.972,139.482 128.5,142C 132.346,143.157 135.179,141.991 137,138.5C 138.698,129.237 134.865,125.737 125.5,128C 120.386,132.562 117.386,138.228 116.5,145C 117.395,155.155 118.062,165.321 118.5,175.5C 122.974,174.092 127.307,172.425 131.5,170.5C 131.677,172.981 130.677,174.814 128.5,176C 121.373,179.709 113.873,182.209 106,183.5C 105.506,181.866 105.34,180.199 105.5,178.5C 108.448,178.777 111.281,178.444 114,177.5C 113.618,161.249 111.285,145.249 107,129.5C 106.586,129.043 106.086,128.709 105.5,128.5C 103.358,129.601 101.192,130.601 99,131.5C 98.51,130.207 98.3433,128.873 98.5,127.5C 104.77,126.035 110.104,123.035 114.5,118.5 Z"/></g>
<g><path style="opacity:0.784" fill="#fefffe" d="M 477.5,118.5 C 478.833,118.5 480.167,118.5 481.5,118.5C 481.5,119.833 481.5,121.167 481.5,122.5C 480.07,122.421 478.736,122.754 477.5,123.5C 475.784,141.136 474.951,158.802 475,176.5C 478.73,175.54 482.563,175.207 486.5,175.5C 486.5,177.167 486.5,178.833 486.5,180.5C 480.491,180.334 474.491,180.501 468.5,181C 466.899,181.273 465.399,181.773 464,182.5C 463.505,180.527 463.338,178.527 463.5,176.5C 466.167,176.5 468.833,176.5 471.5,176.5C 470.88,159.143 469.88,141.809 468.5,124.5C 466.5,124.5 464.5,124.5 462.5,124.5C 462.5,123.167 462.5,121.833 462.5,120.5C 467.766,120.811 472.766,120.145 477.5,118.5 Z"/></g>
<g><path style="opacity:0.778" fill="#fefffe" d="M 166.5,120.5 C 189.605,124.661 198.105,138.327 192,161.5C 188.101,171.405 181.101,177.738 171,180.5C 155.253,177.077 147.086,167.244 146.5,151C 147.532,137.094 154.199,126.927 166.5,120.5 Z M 166.5,125.5 C 161.634,131.786 161.301,138.286 165.5,145C 170.753,146.948 174.253,145.115 176,139.5C 177.357,133.019 174.857,130.519 168.5,132C 165.783,134.65 165.949,137.15 169,139.5C 171.316,138.478 171.816,136.978 170.5,135C 173.831,135.189 174.331,136.689 172,139.5C 168.105,141.148 165.605,139.815 164.5,135.5C 168.314,126.057 173.814,125.057 181,132.5C 186.205,143.181 186.871,154.181 183,165.5C 177.566,178.049 169.899,179.715 160,170.5C 152.359,156.581 152.693,142.915 161,129.5C 162.451,127.536 164.284,126.203 166.5,125.5 Z"/></g>
<g><path style="opacity:1" fill="#ae6148" d="M 276.5,118.5 C 272.103,120.405 267.437,121.739 262.5,122.5C 266.712,119.944 271.378,118.61 276.5,118.5 Z"/></g>
<g><path style="opacity:0.78" fill="#fefffe" d="M 74.5,121.5 C 85.7842,119.182 93.6176,123.182 98,133.5C 98.8719,144.967 93.5386,151.301 82,152.5C 78.1754,151.79 74.342,150.956 70.5,150C 67.9727,147.426 66.806,144.26 67,140.5C 64.201,151.384 65.5343,161.717 71,171.5C 74.8221,177.041 79.9888,178.874 86.5,177C 90.5568,175.053 92.0568,171.886 91,167.5C 88.7897,164.71 85.9563,163.877 82.5,165C 81.6634,166.011 81.33,167.178 81.5,168.5C 83.8333,167.833 86.1667,167.167 88.5,166.5C 89.5464,170.779 88.0464,173.445 84,174.5C 77.8287,170.809 76.9954,166.142 81.5,160.5C 87.7259,157.981 92.2259,159.647 95,165.5C 96.7568,175.75 92.4235,181.417 82,182.5C 65.9832,178.803 57.4832,168.636 56.5,152C 57.2742,138.6 63.2742,128.434 74.5,121.5 Z M 76.5,124.5 C 83.2313,123.448 87.7313,126.114 90,132.5C 93.2834,144.547 88.7834,149.713 76.5,148C 71.1551,145.787 70.3218,142.62 74,138.5C 75.2798,138.613 76.1131,139.28 76.5,140.5C 73.7655,142.821 73.9322,144.821 77,146.5C 80.9206,143.478 81.4206,139.978 78.5,136C 74.4087,134.773 70.9087,135.606 68,138.5C 68.9305,132.724 71.7638,128.057 76.5,124.5 Z"/></g>
<g><path style="opacity:1" fill="#b46644" d="M 293.5,127.5 C 293.635,124.628 294.969,123.128 297.5,123C 296.267,124.667 294.933,126.167 293.5,127.5 Z"/></g>
<g><path style="opacity:1" fill="#b16447" d="M 262.5,122.5 C 259.47,124.109 256.637,126.109 254,128.5C 253.493,127.004 253.993,125.837 255.5,125C 257.65,123.589 259.984,122.755 262.5,122.5 Z"/></g>
<g><path style="opacity:1" fill="#b3633f" d="M 293.5,127.5 C 293.128,131.297 291.794,134.63 289.5,137.5C 290.263,133.863 291.597,130.53 293.5,127.5 Z"/></g>
<g><path style="opacity:0.89" fill="#fbcc96" d="M 321.5,134.5 C 320.365,136.213 318.698,136.88 316.5,136.5C 317.93,135.463 319.597,134.796 321.5,134.5 Z"/></g>
<g><path style="opacity:1" fill="#b9693f" d="M 289.5,137.5 C 289.076,140.918 287.742,143.918 285.5,146.5C 286.042,143.088 287.375,140.088 289.5,137.5 Z"/></g>
<g><path style="opacity:1" fill="#b1654a" d="M 333.5,133.5 C 337.165,137.039 338.332,141.372 337,146.5C 336.887,141.849 335.72,137.515 333.5,133.5 Z"/></g>
<g><path style="opacity:1" fill="#b36341" d="M 285.5,146.5 C 285.267,149.542 284.267,152.208 282.5,154.5C 282.733,151.458 283.733,148.792 285.5,146.5 Z"/></g>
<g><path style="opacity:1" fill="#bc6a38" d="M 282.5,154.5 C 281.118,161.08 280.284,167.747 280,174.5C 277.935,167.441 278.768,160.774 282.5,154.5 Z"/></g>
<g><path style="opacity:1" fill="#b16141" d="M 313.5,173.5 C 309.919,175.892 305.919,176.725 301.5,176C 305.44,174.844 309.44,174.01 313.5,173.5 Z"/></g>
<g><path style="opacity:1" fill="#b16446" d="M 313.5,173.5 C 315.151,172.03 316.985,170.697 319,169.5C 318.879,172.664 317.379,175.164 314.5,177C 313.241,177.982 311.908,178.315 310.5,178C 312.349,176.907 314.016,175.574 315.5,174C 314.906,173.536 314.239,173.369 313.5,173.5 Z"/></g>
<g><path style="opacity:0.953" fill="#fdcc95" d="M 256.5,179.5 C 258.048,179.821 258.715,180.821 258.5,182.5C 257.599,181.71 256.932,180.71 256.5,179.5 Z"/></g>
<g><path style="opacity:1" fill="#a95b46" d="M 305.5,179.5 C 306.552,179.351 307.552,179.517 308.5,180C 302.36,182.582 296.027,183.082 289.5,181.5C 294.901,181.825 300.234,181.158 305.5,179.5 Z"/></g>
<g><path style="opacity:0.533" fill="#fbd3a3" d="M 262.5,187.5 C 264.027,187.427 265.027,188.094 265.5,189.5C 263.973,189.573 262.973,188.906 262.5,187.5 Z"/></g>
</svg>
